<svg id="efdac4e4-3da9-4887-8ef2-2dc7333bacad" data-name="bb3ba5c0-7a6e-4878-8e77-1842a1f61772" xmlns="http://www.w3.org/2000/svg" viewBox="0 0 954.786 133.301"><defs><style>.aebd5750-161a-4bcf-9edb-563bb18e7cbf{isolation:isolate;}.b5c5ac24-28a8-44ca-ba4b-52b99f9a360f{fill:black;}</style></defs><g class="aebd5750-161a-4bcf-9edb-563bb18e7cbf"><path class="b5c5ac24-28a8-44ca-ba4b-52b99f9a360f" d="M112.176,66.65h-25l1.465-8.3h-41.7l-5.078,29.1h41.6A19.552,19.552,0,0,1,98.5,93.8a21.553,21.553,0,0,1,5.86,15.138q0,6.738-5.371,32.714-2.052,9.961-10.743,17.481T69.5,166.65H3l5.859-33.3h25l-1.563,8.3h41.7l5.175-29.2h-41.7A19.694,19.694,0,0,1,22.43,106.2a21.876,21.876,0,0,1-5.762-15.235q0-6.346,5.274-32.617a30.941,30.941,0,0,1,10.644-17.48q8.691-7.519,18.946-7.52h66.6Z" transform="translate(-2.997 -33.349)"/><path class="b5c5ac24-28a8-44ca-ba4b-52b99f9a360f" d="M216.766,104.15a30.467,30.467,0,0,1-10.547,17.579q-8.593,7.422-18.75,7.421h-41.7l-2.148,12.5h41.7l1.269-8.3h25l-5.761,33.3h-66.7q-9.279,0-14.941-6.25a21.874,21.874,0,0,1-5.762-15.234c0-.65.015-1.27.049-1.855s.081-1.139.147-1.661q1.56-11.522,3.711-23.925t4.98-26.075q1.953-10.058,10.645-17.481,8.69-7.518,18.847-7.519h41.6A19.854,19.854,0,0,1,213.446,72.8a20.536,20.536,0,0,1,5.859,14.844,44.334,44.334,0,0,1-.635,5.664Q218.034,97.411,216.766,104.15Zm-64.453-12.5-2.148,12.5h41.6l2.149-12.5Z" transform="translate(-2.997 -33.349)"/><path class="b5c5ac24-28a8-44ca-ba4b-52b99f9a360f" d="M343.915,91.65q-1.37,8.5-3.565,20.85t-5.127,29.15h8.4l-4.493,25h-41.7l4.492-25h8.3l8.692-50h-50l-8.692,50h8.4l-4.493,25h-41.5l4.3-25h8.3l8.692-50h-8.3l4.492-25h83.3q9.276,0,14.941,6.25a21.882,21.882,0,0,1,5.762,15.234q0,.978-.049,1.856T343.915,91.65Z" transform="translate(-2.997 -33.349)"/><path class="b5c5ac24-28a8-44ca-ba4b-52b99f9a360f" d="M459.247,99.951h-25l1.269-8.3h-41.6l-2.149,12.5h41.6a19.7,19.7,0,0,1,15.039,6.25,21.68,21.68,0,0,1,5.859,15.235q0,4.005-2.344,16.015-2.051,9.961-10.742,17.481t-18.75,7.519h-66.5l5.664-33.3h25l-1.367,8.3h41.7l2.149-12.5h-41.7a19.693,19.693,0,0,1-15.039-6.25,21.869,21.869,0,0,1-5.762-15.234q0-4,2.344-16.016,1.951-10.058,10.644-17.481,8.691-7.518,18.848-7.519h66.6Z" transform="translate(-2.997 -33.349)"/><path class="b5c5ac24-28a8-44ca-ba4b-52b99f9a360f" d="M566.669,104.15a30.462,30.462,0,0,1-10.547,17.579q-8.593,7.422-18.75,7.421h-41.7l-2.149,12.5h41.7l1.269-8.3h25l-5.762,33.3h-66.7q-9.279,0-14.942-6.25a21.873,21.873,0,0,1-5.761-15.234c0-.65.015-1.27.048-1.855s.081-1.139.147-1.661q1.56-11.522,3.711-23.925t4.98-26.075q1.953-10.058,10.645-17.481,8.691-7.518,18.848-7.519h41.6A19.854,19.854,0,0,1,563.349,72.8a20.536,20.536,0,0,1,5.859,14.844,44.334,44.334,0,0,1-.635,5.664Q567.937,97.411,566.669,104.15Zm-64.453-12.5-2.149,12.5h41.6l2.148-12.5Z" transform="translate(-2.997 -33.349)"/><path class="b5c5ac24-28a8-44ca-ba4b-52b99f9a360f" d="M709.069,58.349h-8.3l-14.648,83.3h8.3l-4.493,25h-41.7l4.492-25h8.4l5.078-29.2h-50l-5.078,29.2h8.3l-4.493,25h-41.5l4.3-25h8.4l14.648-83.3h-8.4l4.59-25h41.6l-4.492,25h-8.3l-5.176,29.1h50l5.176-29.1h-8.4l4.59-25h41.6Z" transform="translate(-2.997 -33.349)"/><path class="b5c5ac24-28a8-44ca-ba4b-52b99f9a360f" d="M835.419,91.65h-8.3l-8.691,50h8.4l-4.492,25h-83.4q-9.279,0-14.942-6.25a21.867,21.867,0,0,1-5.664-15.234v-2.734a3.18,3.18,0,0,1,.1-.782l8.691-50h-8.3l4.493-25h41.6l-4.492,25h-8.3l-8.691,50h50l8.691-50h-8.3l4.493-25h41.6Z" transform="translate(-2.997 -33.349)"/><path class="b5c5ac24-28a8-44ca-ba4b-52b99f9a360f" d="M957.587,91.65q-3.126,22.266-8.789,50-2.05,9.961-10.742,17.481t-18.848,7.519H836.1l4.3-25h8.4l14.648-83.3h-8.4l4.59-25h41.6l-4.492,25h-8.3l-1.562,8.3h50A19.549,19.549,0,0,1,951.923,73a21.8,21.8,0,0,1,5.859,15.332q0,.782-.049,1.66T957.587,91.65Zm-75,0-8.789,50h50l8.789-50Z" transform="translate(-2.997 -33.349)"/></g></svg>