<?xml version="1.0" standalone="no"?>
<!DOCTYPE svg PUBLIC "-//W3C//DTD SVG 20010904//EN"
 "http://www.w3.org/TR/2001/REC-SVG-20010904/DTD/svg10.dtd">
<svg version="1.0" xmlns="http://www.w3.org/2000/svg"
 width="512.000000pt" height="512.000000pt" viewBox="0 0 512.000000 512.000000"
 preserveAspectRatio="xMidYMid meet">
<metadata>
Created by potrace 1.14, written by Peter Selinger 2001-2017
</metadata>
<g transform="translate(0.000000,512.000000) scale(0.100000,-0.100000)"
fill="#000000" stroke="none">
<path d="M0 2560 l0 -2560 2560 0 2560 0 0 2560 0 2560 -2560 0 -2560 0 0
-2560z m4290 1648 c0 -7 -39 -194 -87 -415 l-87 -403 -377 0 -376 0 19 83 c10
45 21 90 24 100 5 16 -29 17 -620 17 -344 0 -626 -3 -626 -7 0 -5 -34 -165
-75 -357 -41 -191 -75 -350 -75 -352 0 -2 300 -4 668 -4 747 0 748 0 887 -69
215 -107 315 -258 315 -476 0 -200 -131 -779 -215 -950 -107 -220 -402 -425
-679 -474 -39 -7 -418 -11 -1104 -11 l-1044 0 5 23 c3 12 42 199 88 415 l83
392 377 0 376 0 -19 -82 c-10 -46 -21 -91 -24 -100 -5 -17 29 -18 620 -18 344
0 626 3 626 8 0 7 136 648 146 689 l6 22 -699 3 -698 3 -80 27 c-133 45 -247
128 -314 230 -119 178 -110 373 45 968 53 203 99 306 178 401 130 158 358 292
566 334 93 19 2170 21 2170 3z"/>
</g>
</svg>
